<?xml version="1.0" encoding="UTF-8" standalone="no"?>
<!-- Created with Inkscape (http://www.inkscape.org/) -->

<svg
   width="135.46666mm"
   height="135.46664mm"
   viewBox="0 0 135.46666 135.46664"
   version="1.1"
   id="svg1845"
   xml:space="preserve"
   xmlns="http://www.w3.org/2000/svg"
   xmlns:svg="http://www.w3.org/2000/svg"><defs
     id="defs1842" /><g
     id="layer1"
     transform="translate(-25.169491,-70.474577)"><rect
       style="fill:#323031;fill-opacity:1;stroke-width:0.264583"
       id="rect2018"
       width="135.46666"
       height="135.46666"
       x="25.169491"
       y="70.474571"
       ry="43.261742" /><g
       style="fill:#fffff0;fill-opacity:1"
       id="g2029"
       transform="matrix(5.2974586,0,0,5.2974586,53.171881,95.828232)"><path
         d="M 7,2.5 A 0.5,0.5 0 0 1 7.5,2 h 7 A 0.5,0.5 0 0 1 15,2.5 v 1 A 0.5,0.5 0 0 1 14.5,4 h -7 A 0.5,0.5 0 0 1 7,3.5 Z M 2,1 A 2,2 0 0 0 0,3 V 5 A 2,2 0 0 0 2,7 H 4 A 2,2 0 0 0 6,5 V 3 A 2,2 0 0 0 4,1 Z m 0,8 a 2,2 0 0 0 -2,2 v 2 a 2,2 0 0 0 2,2 H 4 A 2,2 0 0 0 6,13 V 11 A 2,2 0 0 0 4,9 Z M 2.854,5.354 a 0.5,0.5 0 0 1 -0.708,0 l -1,-1 A 0.5006316,0.5006316 0 1 1 1.854,3.646 L 2.5,4.293 4.146,2.646 a 0.5006316,0.5006316 0 1 1 0.708,0.708 z m 0,8 a 0.5,0.5 0 0 1 -0.708,0 l -1,-1 A 0.5006316,0.5006316 0 0 1 1.854,11.646 L 2.5,12.293 4.146,10.646 a 0.5006316,0.5006316 0 0 1 0.708,0.708 z M 7,10.5 A 0.5,0.5 0 0 1 7.5,10 h 7 a 0.5,0.5 0 0 1 0.5,0.5 v 1 A 0.5,0.5 0 0 1 14.5,12 h -7 A 0.5,0.5 0 0 1 7,11.5 Z m 0,-5 A 0.5,0.5 0 0 1 7.5,5 h 5 a 0.5,0.5 0 0 1 0,1 h -5 A 0.5,0.5 0 0 1 7,5.5 Z m 0,8 A 0.5,0.5 0 0 1 7.5,13 h 5 a 0.5,0.5 0 0 1 0,1 h -5 A 0.5,0.5 0 0 1 7,13.5 Z"
         id="path2020"
         style="fill:#fffff0;fill-opacity:1" /></g></g></svg>
